<svg width="19" height="19" viewBox="0 0 19 19" fill="none" xmlns="http://www.w3.org/2000/svg">
<path d="M15.0417 6.33329L11.875 9.49996H14.25C14.25 12.1204 12.1204 14.25 9.5 14.25C8.70042 14.25 7.94042 14.052 7.28334 13.6958L6.1275 14.8516C7.10125 15.4691 8.25709 15.8333 9.5 15.8333C12.9992 15.8333 15.8333 12.9991 15.8333 9.49996H18.2083L15.0417 6.33329ZM4.75 9.49996C4.75 6.87954 6.87959 4.74996 9.5 4.74996C10.2996 4.74996 11.0596 4.94788 11.7167 5.30413L12.8725 4.14829C11.8988 3.53079 10.7429 3.16663 9.5 3.16663C6.00084 3.16663 3.16667 6.00079 3.16667 9.49996H0.791672L3.95834 12.6666L7.125 9.49996H4.75Z" fill="black"/>
</svg>
